<svg xmlns="http://www.w3.org/2000/svg">
  <symbol id="search">
    <path d="M21.0002 21L16.6572 16.657M16.6572 16.657C17.4001 15.9141 17.9894 15.0322 18.3914 14.0615C18.7935 13.0909 19.0004 12.0506 19.0004 11C19.0004 9.94939 18.7935 8.90908 18.3914 7.93845C17.9894 6.96782 17.4001 6.08588 16.6572 5.34299C15.9143 4.6001 15.0324 4.01081 14.0618 3.60877C13.0911 3.20672 12.0508 2.99979 11.0002 2.99979C9.9496 2.99979 8.90929 3.20672 7.93866 3.60877C6.96803 4.01081 6.08609 4.6001 5.34321 5.34299C3.84288 6.84332 3 8.87821 3 11C3 13.1218 3.84288 15.1567 5.34321 16.657C6.84354 18.1573 8.87842 19.0002 11.0002 19.0002C13.122 19.0002 15.1569 18.1573 16.6572 16.657Z" stroke="black" stroke-linecap="round" stroke-linejoin="round"/>
  </symbol>
  <symbol id="cart">
    <path d="M3.86379 16.455C3.00579 13.023 2.57679 11.308 3.47779 10.154C4.37779 9 6.14779 9 9.68479 9H14.3148C17.8528 9 19.6208 9 20.5218 10.154C21.4228 11.307 20.9938 13.024 20.1358 16.455C19.5898 18.638 19.3178 19.729 18.5038 20.365C17.6898 21 16.5648 21 14.3148 21H9.68479C7.43479 21 6.30979 21 5.49579 20.365C4.68179 19.729 4.40879 18.638 3.86379 16.455Z" stroke="black" stroke-width="1.5"/>
    <path d="M19.5 9.5L18.79 6.895C18.516 5.89 18.379 5.388 18.098 5.009C17.8178 4.63246 17.4373 4.3424 17 4.172C16.56 4 16.04 4 15 4M4.5 9.5L5.21 6.895C5.484 5.89 5.621 5.388 5.902 5.009C6.18218 4.63246 6.56269 4.3424 7 4.172C7.44 4 7.96 4 9 4" stroke="black" stroke-width="1.5"/>
    <path d="M9 4C9 3.73478 9.10536 3.48043 9.29289 3.29289C9.48043 3.10536 9.73478 3 10 3H14C14.2652 3 14.5196 3.10536 14.7071 3.29289C14.8946 3.48043 15 3.73478 15 4C15 4.26522 14.8946 4.51957 14.7071 4.70711C14.5196 4.89464 14.2652 5 14 5H10C9.73478 5 9.48043 4.89464 9.29289 4.70711C9.10536 4.51957 9 4.26522 9 4Z" stroke="black" stroke-width="1.5"/>
  </symbol>
</svg>
